# xmcd
# Track frame offsets:
# 150
# 12041
# 28201
# 44002
# 61143
# 80104
# 93639
# 110282
# 133392
# 151912
# 166779
# 187501
# 200142
# 216346
# 234772
# 253695
# 269686
# 282083
# 293477
# 314234
#
# Disc length: 4393 seconds
# Revision: 0
# Processed by: cddbd v1.5.2PL0 Copyright (c) Steve Scherf et al.
# Submitted via: VisiTrax 2.11.3.279 - For more info visit www.synapsa.com
#
DISCID=25112714
DTITLE=Various Artist - Just Country [CD4]
DYEAR=2018
DGENRE=Country
TTITLE0=Everly Bros, The - I Walk The Line
TTITLE1=Kris Kristofferson - The Silver Tongued Devil And I
TTITLE2=Linda Ronstadt - Desperado
TTITLE3=Hunter Hayes - Wanted
TTITLE4=Jewel - You Were Meant For Me
TTITLE5=Brett Eldredge - Don't Ya
TTITLE6=John Prine - Angel From Montgomery
TTITLE7=Gene Clark - No Other
TTITLE8=Beth Nielsen Chapman - Sand And Water
TTITLE9=Forester Sisters, The - (I'd Choose) You Again
TTITLE10=Rodney Crowell - Shame On The Moon
TTITLE11=Holly Dunn - You Really Had Me Going
TTITLE12=T G Sheppard - I Loved 'Em Every One
TTITLE13=David Lee Roth - Cheatin' Heart Cafe
TTITLE14=Trick Pony - Love Be Still
TTITLE15=South 65 - Like An Angel
TTITLE16=Mila Mason - That's Enough Of That
TTITLE17=Travis Tritt - There's A Quarter (Call Someone Who Cares)
TTITLE18=Anita Cochran - Daddy Can You See Me
TTITLE19=Georgia Satelites, The - Keep Your Hands To Yourself
EXTD=UPC: 0190295837587   \nLabel: Rhino - 0190295837587   \nPub: 2018 Rhin
EXTD=o UK
EXTT0=
EXTT1=
EXTT2=
EXTT3=
EXTT4=
EXTT5=
EXTT6=
EXTT7=
EXTT8=
EXTT9=
EXTT10=
EXTT11=
EXTT12=
EXTT13=
EXTT14=
EXTT15=
EXTT16=
EXTT17=
EXTT18=
EXTT19=
PLAYORDER=
